# MagicaVoxel @ Ephtracy

# material
mtllib ladder.mtl
usemtl palette

# normals
vn -1 0 0
vn 1 0 0
vn 0 0 1
vn 0 0 -1
vn 0 -1 0
vn 0 1 0

# texcoords
vt 0.970703 0.5
vt 0.982422 0.5
vt 0.986328 0.5

# verts
v -4 0 0.5
v -4 0 -0.5
v -4 1 0.5
v -4 1 -0.5
v -4 9 0.5
v -4 9 -0.5
v -4 10 0.5
v -4 10 -0.5
v 3 0 0.5
v 3 0 -0.5
v 3 1 0.5
v 3 1 -0.5
v 3 2 0.5
v 3 2 -0.5
v 3 4 0.5
v 3 4 -0.5
v 3 6 0.5
v 3 6 -0.5
v 3 8 0.5
v 3 8 -0.5
v 3 9 0.5
v 3 9 -0.5
v 3 10 0.5
v 3 10 -0.5
v -3 0 0.5
v -3 0 -0.5
v -3 1 0.5
v -3 1 -0.5
v -3 2 0.5
v -3 2 -0.5
v -3 4 0.5
v -3 4 -0.5
v -3 6 0.5
v -3 6 -0.5
v -3 8 0.5
v -3 8 -0.5
v -3 9 0.5
v -3 9 -0.5
v -3 10 0.5
v -3 10 -0.5
v 4 0 0.5
v 4 0 -0.5
v 4 1 0.5
v 4 1 -0.5
v 4 9 0.5
v 4 9 -0.5
v 4 10 0.5
v 4 10 -0.5
v -4 0 0.5
v -4 1 0.5
v -4 9 0.5
v -4 10 0.5
v -3 0 0.5
v -3 1 0.5
v -3 2 0.5
v -3 4 0.5
v -3 6 0.5
v -3 8 0.5
v -3 9 0.5
v -3 10 0.5
v 3 0 0.5
v 3 1 0.5
v 3 2 0.5
v 3 4 0.5
v 3 6 0.5
v 3 8 0.5
v 3 9 0.5
v 3 10 0.5
v 4 0 0.5
v 4 1 0.5
v 4 9 0.5
v 4 10 0.5
v -4 0 -0.5
v -4 1 -0.5
v -4 9 -0.5
v -4 10 -0.5
v -3 0 -0.5
v -3 1 -0.5
v -3 2 -0.5
v -3 4 -0.5
v -3 6 -0.5
v -3 8 -0.5
v -3 9 -0.5
v -3 10 -0.5
v 3 0 -0.5
v 3 1 -0.5
v 3 2 -0.5
v 3 4 -0.5
v 3 6 -0.5
v 3 8 -0.5
v 3 9 -0.5
v 3 10 -0.5
v 4 0 -0.5
v 4 1 -0.5
v 4 9 -0.5
v 4 10 -0.5
v -4 0 0.5
v -3 0 0.5
v 3 0 0.5
v 4 0 0.5
v -4 0 -0.5
v -3 0 -0.5
v 3 0 -0.5
v 4 0 -0.5
v -3 1 0.5
v 3 1 0.5
v -3 1 -0.5
v 3 1 -0.5
v -3 4 0.5
v 3 4 0.5
v -3 4 -0.5
v 3 4 -0.5
v -3 8 0.5
v 3 8 0.5
v -3 8 -0.5
v 3 8 -0.5
v -3 2 0.5
v 3 2 0.5
v -3 2 -0.5
v 3 2 -0.5
v -3 6 0.5
v 3 6 0.5
v -3 6 -0.5
v 3 6 -0.5
v -3 9 0.5
v 3 9 0.5
v -3 9 -0.5
v 3 9 -0.5
v -4 10 0.5
v -3 10 0.5
v 3 10 0.5
v 4 10 0.5
v -4 10 -0.5
v -3 10 -0.5
v 3 10 -0.5
v 4 10 -0.5

# faces
f 3/1/1 2/1/1 1/1/1
f 4/1/1 2/1/1 3/1/1
f 5/2/1 4/2/1 3/2/1
f 6/2/1 4/2/1 5/2/1
f 7/1/1 6/1/1 5/1/1
f 8/1/1 6/1/1 7/1/1
f 11/1/1 10/1/1 9/1/1
f 12/1/1 10/1/1 11/1/1
f 15/2/1 14/2/1 13/2/1
f 16/2/1 14/2/1 15/2/1
f 19/2/1 18/2/1 17/2/1
f 20/2/1 18/2/1 19/2/1
f 23/1/1 22/1/1 21/1/1
f 24/1/1 22/1/1 23/1/1
f 25/1/2 26/1/2 27/1/2
f 27/1/2 26/1/2 28/1/2
f 29/2/2 30/2/2 31/2/2
f 31/2/2 30/2/2 32/2/2
f 33/2/2 34/2/2 35/2/2
f 35/2/2 34/2/2 36/2/2
f 37/1/2 38/1/2 39/1/2
f 39/1/2 38/1/2 40/1/2
f 41/1/2 42/1/2 43/1/2
f 43/1/2 42/1/2 44/1/2
f 43/2/2 44/2/2 45/2/2
f 45/2/2 44/2/2 46/2/2
f 45/1/2 46/1/2 47/1/2
f 47/1/2 46/1/2 48/1/2
f 53/1/3 50/1/3 49/1/3
f 54/2/3 51/2/3 50/2/3
f 54/1/3 50/1/3 53/1/3
f 55/2/3 51/2/3 54/2/3
f 56/2/3 51/2/3 55/2/3
f 57/2/3 51/2/3 56/2/3
f 58/2/3 51/2/3 57/2/3
f 59/1/3 52/1/3 51/1/3
f 59/2/3 51/2/3 58/2/3
f 60/1/3 52/1/3 59/1/3
f 62/3/3 55/3/3 54/3/3
f 63/3/3 55/3/3 62/3/3
f 64/3/3 57/3/3 56/3/3
f 65/3/3 57/3/3 64/3/3
f 66/3/3 59/3/3 58/3/3
f 67/3/3 59/3/3 66/3/3
f 69/1/3 62/1/3 61/1/3
f 70/2/3 65/2/3 64/2/3
f 70/1/3 62/1/3 69/1/3
f 70/2/3 63/2/3 62/2/3
f 70/2/3 67/2/3 66/2/3
f 70/2/3 66/2/3 65/2/3
f 70/2/3 64/2/3 63/2/3
f 71/1/3 68/1/3 67/1/3
f 71/2/3 67/2/3 70/2/3
f 72/1/3 68/1/3 71/1/3
f 73/1/4 74/1/4 77/1/4
f 74/2/4 75/2/4 78/2/4
f 77/1/4 74/1/4 78/1/4
f 78/2/4 75/2/4 79/2/4
f 79/2/4 75/2/4 80/2/4
f 80/2/4 75/2/4 81/2/4
f 81/2/4 75/2/4 82/2/4
f 75/1/4 76/1/4 83/1/4
f 82/2/4 75/2/4 83/2/4
f 83/1/4 76/1/4 84/1/4
f 78/3/4 79/3/4 86/3/4
f 86/3/4 79/3/4 87/3/4
f 80/3/4 81/3/4 88/3/4
f 88/3/4 81/3/4 89/3/4
f 82/3/4 83/3/4 90/3/4
f 90/3/4 83/3/4 91/3/4
f 85/1/4 86/1/4 93/1/4
f 88/2/4 89/2/4 94/2/4
f 93/1/4 86/1/4 94/1/4
f 86/2/4 87/2/4 94/2/4
f 90/2/4 91/2/4 94/2/4
f 89/2/4 90/2/4 94/2/4
f 87/2/4 88/2/4 94/2/4
f 91/1/4 92/1/4 95/1/4
f 94/2/4 91/2/4 95/2/4
f 95/1/4 92/1/4 96/1/4
f 101/1/5 98/1/5 97/1/5
f 102/1/5 98/1/5 101/1/5
f 103/1/5 100/1/5 99/1/5
f 104/1/5 100/1/5 103/1/5
f 107/3/5 106/3/5 105/3/5
f 108/3/5 106/3/5 107/3/5
f 111/3/5 110/3/5 109/3/5
f 112/3/5 110/3/5 111/3/5
f 115/3/5 114/3/5 113/3/5
f 116/3/5 114/3/5 115/3/5
f 117/3/6 118/3/6 119/3/6
f 119/3/6 118/3/6 120/3/6
f 121/3/6 122/3/6 123/3/6
f 123/3/6 122/3/6 124/3/6
f 125/3/6 126/3/6 127/3/6
f 127/3/6 126/3/6 128/3/6
f 129/1/6 130/1/6 133/1/6
f 133/1/6 130/1/6 134/1/6
f 131/1/6 132/1/6 135/1/6
f 135/1/6 132/1/6 136/1/6
